<svg width="103" height="30" viewBox="0 0 103 30" fill="none" xmlns="http://www.w3.org/2000/svg">
<g clip-path="url(#clip0_765_497)">
<path d="M7.08098 11.4405H0V18.4921H7.08098V11.4405Z" fill="black" fill-opacity="0.5"/>
<path d="M0.0185547 0.036726V6.97817H14.8013C17.7517 6.97817 20.2473 8.73495 20.2473 10.8162V19.0981C20.2473 21.1732 17.7517 22.9361 14.8013 22.9361H0.0185547V29.8776H14.8013C21.6487 29.8776 27.2238 25.0418 27.2238 19.0981V10.8162C27.2238 4.87247 21.6487 0.036726 14.8013 0.036726H0.0185547Z" fill="black" fill-opacity="0.5"/>
<path d="M53.2612 11.4405H46.1802V18.4921H53.2612V11.4405Z" fill="black" fill-opacity="0.5"/>
<path d="M45.2273 0C39.2589 0 34.4092 5.54581 34.4092 12.3709V29.7368H41.3857V12.3709C41.3857 9.43277 43.1498 6.94144 45.2335 6.94144H53.9679C56.0578 6.94144 57.8219 9.42665 57.8219 12.3709V29.7368H64.7922V12.3709C64.7922 5.55193 59.9364 0 53.9679 0H45.2335H45.2273Z" fill="black" fill-opacity="0.5"/>
<path d="M96.0173 0V17.3658C96.0173 20.304 94.2532 22.7892 92.1695 22.7892H83.4412C81.3513 22.7892 79.5934 20.304 79.5934 17.3658V0H72.623V17.3658C72.623 24.1849 77.4789 29.7368 83.4474 29.7368H92.1756C98.1441 29.7368 103 24.191 103 17.3658V0H96.0296H96.0173Z" fill="black" fill-opacity="0.5"/>
</g>
<defs>
<clipPath id="clip0_765_497">
<rect width="103" height="29.8776" fill="white"/>
</clipPath>
</defs>
</svg>
